# xmcd
# 
# Track frame offsets:
#     183
#     20320
#     32440
#     48540
#     68060
#     83848
#     98170
#     110510
#     124058
#     143050
#     166488
#     185138
#     199550
#     217105
#     229560
#     249595
#     265218
#     280823
# 
# Disc length: 3970
# 
# Revision: 1
# Processed by: cddbd v1.5.2PL0 Copyright (c) Steve Scherf et al.
# Submitted via: fre:ac v1.0.17
# 
DISCID=fd0f8012
DTITLE=BOBBY BARE - The Country Store Collection
DYEAR=0
DGENRE=Country
TTITLE0=The way I feel tonight
TTITLE1=Take me as I am or let me go
TTITLE2=The Gambler
TTITLE3=Tequila Sheila
TTITLE4=Goodnight Irene
TTITLE5=Too many nights alone
TTITLE6=If you ain't got nothing
TTITLE7=(I'm not) a candle in the wind
TTITLE8=The Jogger
TTITLE9=Numbers
TTITLE10=Till I gain control again
TTITLE11=She is gone
TTITLE12=Drinkin'  from the bottle
TTITLE13=Praise the Lord and send me the money
TTITLE14=Desperados waiting for the train
TTITLE15=New cut road
TTITLE16=Call me the breeze
TTITLE17=Some days are dimonds (Some days are stone)
EXTD=
EXTT0=
EXTT1=
EXTT2=
EXTT3=
EXTT4=
EXTT5=
EXTT6=
EXTT7=
EXTT8=
EXTT9=
EXTT10=
EXTT11=
EXTT12=
EXTT13=
EXTT14=
EXTT15=
EXTT16=
EXTT17=
PLAYORDER=
